<svg width="50" height="56" viewBox="0 0 50 56" fill="none" xmlns="http://www.w3.org/2000/svg">
<path d="M43.3944 14.144C38.9917 9.73485 33.3144 7.53027 26.3672 7.53027C19.42 7.53027 13.8162 9.73485 9.38412 14.144C4.95041 18.5532 2.73438 24.2995 2.73438 31.378C2.73438 38.4566 4.98147 43.9918 9.47401 48.5204C13.9665 53.0507 19.5965 55.3142 26.3672 55.3142C33.1379 55.3142 39.0669 53.1243 43.4401 48.7446C47.8118 44.3666 50 38.5761 50 31.3764C50 24.1767 47.7987 18.5532 43.396 14.1424L43.3944 14.144ZM24.9062 42.013H24.8179C18.6127 38.2635 8.74023 31.8903 10.2731 23.3535C11.5413 16.2946 19.4691 13.815 24.8179 19.635H24.9062C30.2551 13.815 38.1828 16.2929 39.451 23.3535C40.9839 31.8903 31.113 38.2651 24.9062 42.013Z" fill="#34B774"/>
<path opacity="0.66" d="M40.66 6.61375C36.2574 2.20459 30.58 0 23.6328 0C16.6856 0 11.0818 2.20459 6.64974 6.61375C2.21603 11.0229 0 16.7692 0 23.8478C0 30.9263 2.24709 36.4615 6.73963 40.9901C11.2322 45.5204 16.8621 47.7839 23.6328 47.7839C30.4035 47.7839 36.3325 45.5941 40.7058 41.2144C45.0774 36.8363 47.2656 31.0458 47.2656 23.8461C47.2656 16.6465 45.0643 11.0229 40.6616 6.61211L40.66 6.61375ZM24.9059 42.013H24.8176C18.6124 38.2635 8.73994 31.8903 10.2729 23.3535C11.541 16.2946 19.4688 13.815 24.8176 19.635H24.9059C30.2548 13.815 38.1825 16.2929 39.4507 23.3535C40.9836 31.8903 31.1128 38.2651 24.9059 42.013Z" fill="#34B774"/>
</svg>
