<svg width="641" height="144" viewBox="0 0 641 144" fill="none" xmlns="http://www.w3.org/2000/svg">
<path d="M52.5374 128.758C44.9902 119.034 41.2166 106.416 41.2166 90.905C41.2166 75.3938 44.9866 62.8121 52.5374 53.1489C60.0811 43.4894 69.8267 38.6596 81.7706 38.6596C96.994 38.6596 118.368 46.4152 124.931 61.9228H126.259C123.896 57.9787 122.092 54.6943 120.846 52.0661C119.596 49.4378 118.451 45.4973 117.402 40.2373C116.349 34.9808 115.826 28.7383 115.826 21.5098V2.19075H143.781V140.196H118.386C118.386 134.939 121.208 128.238 126.85 120.088H125.522C121.977 127.578 114.817 133.265 110.026 137.141C105.232 141.017 90.8251 143.086 81.7706 143.351C69.8267 143.351 60.0811 138.489 52.5374 128.761V128.758ZM117.008 90.905C117.008 80.7865 114.942 73.0632 110.807 67.7386C106.672 62.414 100.929 59.7535 93.582 59.7535C78.2261 59.7535 70.5499 70.1374 70.5499 90.905C70.5499 111.673 78.2261 122.056 93.582 122.056C100.8 122.056 106.507 119.364 110.71 113.975C114.91 108.585 117.008 100.898 117.008 90.9086V90.905Z" fill="#34B774"/>
<path d="M268.311 140.192V41.6177H293.509C293.377 47.5339 290.162 55.0923 283.864 64.2893H287.086C289.711 56.4046 293.581 50.1621 298.701 45.5618C303.821 40.9615 318.972 38.6596 326.19 38.6596C336.82 38.6596 345.055 41.9117 350.894 48.4195C356.734 54.9237 359.655 63.7657 359.655 74.9348V140.192H331.7V80.2594C331.7 67.9071 326.448 61.7256 315.951 61.7256C310.043 61.7256 305.647 63.5004 302.761 67.0501C298.429 72.3102 296.266 81.1164 296.266 93.4687V140.192H268.311Z" fill="#34B774"/>
<path d="M365.151 114.957C365.28 108.517 366.855 102.931 369.877 98.198C372.895 93.4651 377.26 89.6572 382.967 86.7637C388.677 83.8737 395.039 81.6076 402.06 79.9618C409.081 78.3196 417.38 77.0396 426.965 76.1181V72.3712C426.965 63.3032 421.584 58.7675 410.821 58.7675C398.877 58.7675 391.659 63.9594 389.168 74.3432L363.969 68.8214C364.757 60.5423 369.383 53.4429 377.847 47.5303C386.311 41.6141 397.238 38.6596 410.624 38.6596C424.799 38.6596 435.658 41.883 443.205 48.3191C450.749 54.7588 454.526 64.2892 454.526 76.9069V112.985C454.526 115.617 454.852 117.259 455.51 117.915C456.166 118.575 457.805 118.901 460.433 118.901H469.094V140.192H457.48C449.08 140.192 443.47 138.715 440.649 135.757C437.824 132.799 436.284 127.446 436.023 119.69H434.756C429.768 135.463 419.725 143.348 404.634 143.348C395.58 143.348 380.077 140.716 374.109 135.463C368.137 130.206 365.151 123.372 365.151 114.961V114.957ZM426.965 99.7757V93.4687C415.676 94.9172 407.28 96.9539 401.767 99.5785C396.253 102.21 393.5 106.413 393.5 112.196C393.5 119.292 397.764 122.842 406.296 122.842C412.203 122.842 417.123 120.87 421.061 116.929C424.999 112.985 426.968 107.27 426.968 99.7757H426.965Z" fill="#34B774"/>
<path d="M483.746 113.591V62.1344H463.077V40.8433H483.746V9.88902H511.701V40.8433H537.293V62.1344H511.701V108.464C511.701 111.49 512.388 113.688 513.767 115.068C515.145 116.449 517.34 117.137 520.362 117.137H541.621V139.414H508.747C501.003 139.414 494.899 137.048 490.438 132.318C485.973 127.585 483.742 121.347 483.742 113.587L483.746 113.591Z" fill="#34B774"/>
<path d="M542.311 90.7078C542.311 75.5946 547.037 63.1419 556.485 53.3461C565.934 43.5575 577.81 38.6596 592.117 38.6596C606.423 38.6596 618.625 43.5252 627.157 53.2493C635.685 62.9769 639.953 75.5264 639.953 90.905C639.953 93.9312 639.885 96.165 639.756 97.6064H570.266C570.66 105.624 572.826 111.701 576.764 115.843C580.703 119.984 585.883 122.053 592.317 122.053C602.553 122.053 610.165 116.334 615.152 104.899L640.153 114.559C636.738 122.444 631.228 129.281 623.616 135.061C616.137 140.583 605.7 143.34 592.313 143.34C577.219 143.34 565.114 138.579 555.991 129.048C546.869 119.521 542.311 106.739 542.311 90.7042V90.7078ZM571.247 77.8929H612.195C610.748 65.1462 604.057 58.7711 592.117 58.7711C586.47 58.7711 581.812 60.4168 578.139 63.7012C574.462 66.9892 572.167 71.7186 571.251 77.8965L571.247 77.8929Z" fill="#34B774"/>
<path d="M243.353 53.6509C233.708 43.9914 221.27 39.1616 206.05 39.1616C190.83 39.1616 178.553 43.9914 168.843 53.6509C159.13 63.3104 154.275 75.8994 154.275 91.407C154.275 106.915 159.198 119.041 169.04 128.962C178.883 138.887 191.217 143.846 206.05 143.846C220.883 143.846 233.872 139.049 243.453 129.454C253.03 119.862 257.824 107.176 257.824 91.4034C257.824 75.6305 253.002 63.3104 243.356 53.6473L243.353 53.6509ZM202.849 114.706H202.656C189.061 106.492 167.433 92.5293 170.791 73.8269C173.569 58.3624 190.937 52.9302 202.656 65.6805H202.849C214.567 52.9302 231.935 58.3588 234.714 73.8269C238.072 92.5293 216.447 106.495 202.849 114.706Z" fill="#34B774"/>
<path opacity="0.66" d="M237.363 37.1537C227.718 27.4942 215.28 22.6644 200.06 22.6644C184.84 22.6644 172.563 27.4942 162.853 37.1537C153.14 46.8132 148.285 59.4022 148.285 74.9098C148.285 90.4174 153.208 102.544 163.05 112.465C172.893 122.39 185.227 127.349 200.06 127.349C214.893 127.349 227.882 122.551 237.463 112.956C247.04 103.365 251.834 90.6791 251.834 74.9062C251.834 59.1333 247.012 46.8132 237.366 37.1501L237.363 37.1537ZM202.849 114.706H202.656C189.061 106.492 167.433 92.5293 170.791 73.8269C173.569 58.3623 190.937 52.9302 202.656 65.6805H202.849C214.567 52.9302 231.935 58.3588 234.713 73.8269C238.072 92.5293 216.447 106.495 202.849 114.706Z" fill="#34B774"/>
<path d="M33.3075 0H0V30.0041H33.3075V0Z" fill="#34B774"/>
<path d="M0.984863 141.985H32.5201V39.8249H0.984863V141.985ZM4.56516 43.4105H28.9398V138.399H4.56516V43.4105Z" fill="#34B774"/>
<path d="M28.9396 41.1157H3.2832V138.399H28.9396V41.1157Z" fill="#34B774"/>
</svg>
